<?xml version="1.0" standalone="no"?>
<!DOCTYPE svg PUBLIC "-//W3C//DTD SVG 20010904//EN"
 "http://www.w3.org/TR/2001/REC-SVG-20010904/DTD/svg10.dtd">
<svg version="1.0" xmlns="http://www.w3.org/2000/svg"
 width="600.000000pt" height="600.000000pt" viewBox="0 0 600.000000 600.000000"
 preserveAspectRatio="xMidYMid meet">
<metadata>
Created by potrace 1.14, written by Peter Selinger 2001-2017
</metadata>
<g transform="translate(0.000000,600.000000) scale(0.100000,-0.100000)"
fill="#000000" stroke="none">
<path d="M740 4875 l0 -1125 -370 0 -370 0 0 -375 0 -375 745 0 745 0 0 -381
0 -381 -745 7 -745 7 0 -1126 0 -1126 2995 0 2995 0 0 1126 0 1126 -750 -7
-750 -7 0 381 0 381 380 0 380 0 3 378 2 377 3 -377 2 -378 365 0 365 0 0
1500 0 1500 -375 0 -375 0 2 -1120 3 -1120 -377 0 -378 0 0 1120 0 1120 -1127
0 -1128 0 3 -375 2 -375 -375 0 -375 0 0 375 0 375 -375 0 -375 0 0 -1125z
m1490 -3000 l0 -365 -370 0 -370 0 0 365 0 365 370 0 370 0 0 -365z m2260 -5
l0 -370 -370 0 -370 0 0 370 0 370 370 0 370 0 0 -370z"/>
</g>
</svg>
