<?xml version="1.0" standalone="no"?>
<!DOCTYPE svg PUBLIC "-//W3C//DTD SVG 20010904//EN"
 "http://www.w3.org/TR/2001/REC-SVG-20010904/DTD/svg10.dtd">
<svg version="1.0" xmlns="http://www.w3.org/2000/svg"
 width="742.000000pt" height="742.000000pt" viewBox="0 0 742.000000 742.000000"
 preserveAspectRatio="xMidYMid meet">
<metadata>
Created by potrace 1.14, written by Peter Selinger 2001-2017
</metadata>
<g transform="translate(0.000000,742.000000) scale(0.100000,-0.100000)"
fill="#000000" stroke="none">
<path d="M3647 7073 c-1 -1 -46 -3 -99 -5 -54 -1 -98 -6 -98 -9 0 -3 -15 -6
-32 -6 -75 -2 -176 -11 -185 -16 -5 -3 -28 -7 -51 -8 -23 -2 -42 -8 -42 -13 0
-6 -5 -4 -10 4 -5 8 -10 10 -10 4 0 -6 -6 -11 -12 -11 -24 -1 -123 -20 -123
-24 0 -1 -12 -2 -27 -3 -15 -1 -30 -5 -34 -9 -4 -4 -18 -7 -31 -7 -12 0 -23
-6 -23 -12 0 -10 -3 -9 -9 1 -6 9 -11 10 -15 3 -4 -6 -13 -9 -21 -5 -8 3 -15
1 -15 -5 0 -5 -10 -9 -22 -8 -13 1 -39 -7 -58 -16 -19 -10 -42 -18 -50 -18 -9
0 -20 -3 -24 -7 -4 -5 -11 -8 -14 -9 -20 -2 -92 -28 -92 -33 0 -4 -11 -8 -26
-9 -14 -1 -35 -7 -47 -14 -12 -7 -25 -11 -29 -10 -5 1 -8 -4 -8 -11 0 -8 -4
-7 -10 3 -6 9 -10 10 -10 3 0 -9 -24 -23 -50 -28 -25 -5 -50 -18 -50 -26 0 -6
-4 -8 -9 -5 -5 3 -22 -1 -37 -9 -16 -8 -35 -15 -41 -15 -7 0 -13 -4 -13 -10 0
-5 -9 -10 -20 -10 -11 0 -20 -5 -20 -12 0 -6 -3 -9 -6 -5 -3 3 -29 -8 -57 -25
-29 -17 -59 -32 -67 -33 -8 -1 -14 -8 -13 -14 2 -6 0 -10 -5 -10 -20 3 -32 -2
-26 -13 4 -6 3 -8 -3 -5 -12 8 -85 -28 -76 -37 4 -3 -2 -6 -11 -6 -10 0 -31
-9 -47 -21 -16 -11 -29 -18 -29 -15 0 3 -12 -6 -26 -19 -15 -14 -31 -25 -35
-25 -12 0 -124 -80 -113 -81 5 0 -2 -5 -16 -11 -14 -6 -29 -10 -33 -9 -5 1 -6
-2 -4 -6 6 -10 -19 -34 -27 -26 -3 4 -6 0 -6 -7 0 -7 -3 -11 -6 -7 -3 3 -19
-7 -34 -23 -15 -16 -30 -27 -32 -25 -2 2 -25 -15 -50 -39 -26 -24 -50 -41 -53
-38 -3 3 -5 -3 -5 -13 0 -10 -3 -15 -6 -12 -4 4 -26 -14 -50 -38 -23 -25 -48
-45 -54 -45 -6 0 -8 -4 -5 -10 3 -5 2 -10 -4 -10 -5 0 -27 -18 -49 -39 -22
-22 -42 -37 -45 -35 -3 3 -4 -3 -4 -13 1 -10 -4 -17 -10 -15 -7 1 -13 -5 -13
-14 0 -8 -4 -12 -10 -9 -5 3 -10 1 -10 -6 0 -6 -11 -22 -25 -35 -14 -13 -25
-28 -25 -34 0 -6 -4 -8 -10 -5 -5 3 -10 2 -10 -2 0 -5 -20 -30 -45 -56 -25
-26 -43 -47 -39 -47 4 0 -5 -11 -20 -25 -15 -14 -24 -25 -21 -25 3 0 -5 -11
-19 -24 -15 -13 -26 -28 -26 -34 0 -5 -7 -13 -16 -16 -9 -4 -14 -9 -11 -12 5
-5 -16 -34 -51 -70 -6 -7 -12 -18 -12 -24 0 -6 -4 -8 -10 -5 -6 3 -7 -1 -4 -9
4 -10 1 -16 -7 -16 -7 0 -9 -3 -6 -7 4 -3 -2 -13 -13 -20 -11 -8 -18 -18 -15
-23 3 -4 -2 -11 -11 -14 -8 -3 -12 -10 -9 -16 3 -6 -1 -13 -9 -16 -9 -3 -13
-10 -10 -15 3 -5 0 -9 -6 -9 -6 0 -16 -13 -21 -30 -6 -16 -16 -30 -22 -30 -6
0 -8 -3 -4 -6 3 -4 1 -12 -6 -20 -30 -34 -35 -42 -29 -49 4 -3 -1 -11 -11 -16
-9 -6 -15 -14 -12 -20 4 -5 2 -9 -2 -9 -10 0 -50 -90 -46 -102 2 -4 -5 -4 -15
-1 -9 3 -14 3 -10 -2 4 -4 1 -20 -7 -35 -8 -15 -11 -30 -8 -34 4 -3 1 -6 -6
-6 -7 0 -9 -4 -6 -10 3 -5 1 -10 -6 -10 -7 0 -9 -3 -6 -6 3 -4 1 -16 -5 -28
-7 -11 -11 -24 -10 -28 1 -5 -3 -8 -9 -8 -6 0 -9 -9 -6 -20 3 -11 2 -18 -3
-15 -7 5 -25 -42 -22 -57 1 -5 -3 -8 -9 -8 -5 0 -8 -4 -4 -9 3 -5 1 -12 -5
-16 -6 -4 -8 -11 -5 -16 4 -5 1 -9 -5 -9 -6 0 -9 -4 -5 -9 3 -5 1 -12 -4 -15
-5 -4 -12 -24 -16 -46 -4 -22 -10 -40 -15 -40 -5 0 -7 -11 -6 -25 2 -13 -1
-22 -5 -19 -5 3 -9 -1 -10 -8 0 -7 -2 -20 -4 -28 -2 -8 -7 -28 -10 -45 -3 -16
-11 -35 -16 -42 -6 -7 -8 -17 -4 -23 3 -5 2 -10 -3 -10 -5 0 -9 -6 -10 -12 -1
-21 -12 -66 -21 -90 -4 -13 -6 -29 -4 -35 3 -7 1 -13 -4 -13 -4 0 -9 -19 -10
-42 -2 -23 -8 -45 -15 -50 -10 -6 -10 -8 0 -8 8 0 10 -5 6 -12 -5 -7 -9 -19
-10 -28 -2 -8 -5 -28 -8 -45 -13 -73 -28 -227 -30 -312 0 -35 -5 -63 -10 -63
-5 0 -3 -6 3 -14 9 -11 9 -15 -1 -19 -11 -4 -10 -6 0 -6 8 -1 10 -6 5 -13 -12
-20 -12 -38 -1 -38 6 0 3 -9 -7 -20 -18 -20 -18 -21 0 -14 13 5 16 4 11 -4
-11 -18 -16 -52 -7 -52 4 0 8 -7 8 -15 0 -8 -3 -15 -6 -15 -3 0 -6 -11 -6 -25
0 -14 3 -25 6 -25 4 0 6 -11 5 -25 0 -14 -5 -25 -9 -25 -5 0 -5 -6 -1 -12 5
-7 9 -35 11 -63 10 -164 22 -263 35 -289 8 -14 7 -17 -4 -10 -10 6 -11 4 -3
-7 6 -8 12 -27 14 -44 2 -16 8 -33 13 -36 7 -4 6 -9 -1 -13 -8 -5 -8 -13 0
-27 6 -12 8 -23 5 -26 -3 -4 -1 -12 6 -20 6 -7 8 -16 5 -20 -4 -3 -2 -12 4
-20 6 -7 9 -13 5 -13 -3 0 -1 -11 4 -25 5 -14 12 -38 15 -53 10 -44 10 -47 16
-57 15 -28 8 -86 -17 -141 -16 -32 -28 -61 -29 -64 0 -3 -4 -11 -9 -19 -7 -11
-6 -12 5 -6 12 8 12 6 0 -8 -7 -9 -10 -17 -6 -17 4 0 2 -7 -5 -15 -7 -8 -10
-22 -6 -30 3 -8 1 -15 -4 -15 -5 0 -7 -7 -4 -15 4 -8 1 -15 -5 -15 -9 0 -9 -5
-1 -20 7 -12 7 -20 1 -20 -5 0 -9 -12 -7 -27 1 -16 -2 -34 -7 -40 -5 -7 -6
-13 -1 -13 5 0 10 -46 11 -103 2 -109 6 -144 20 -173 5 -11 9 -26 8 -34 0 -8
3 -18 7 -21 5 -3 10 -15 13 -27 2 -12 7 -28 12 -35 4 -6 8 -19 10 -27 1 -8 7
-16 12 -18 6 -2 11 -12 11 -23 0 -10 9 -24 19 -31 10 -6 17 -18 14 -25 -3 -7
0 -13 5 -13 6 0 13 -8 16 -17 3 -10 17 -30 31 -46 14 -15 23 -27 20 -27 -3 0
19 -25 50 -55 31 -30 62 -55 68 -55 7 0 18 -9 25 -20 7 -11 19 -20 27 -20 8 0
15 -4 15 -10 0 -5 7 -10 15 -10 8 0 15 -4 15 -10 0 -5 9 -10 20 -10 11 0 20
-3 20 -7 0 -5 11 -13 25 -20 19 -8 24 -8 19 0 -3 7 2 3 10 -7 9 -11 16 -16 16
-11 0 5 5 4 12 -3 7 -7 24 -12 38 -12 14 0 31 -5 38 -12 7 -7 12 -9 12 -5 0 3
19 0 41 -8 50 -18 52 -18 43 -3 -6 9 -3 9 9 -1 12 -9 51 -13 139 -13 74 -1
127 -5 136 -12 7 -6 49 -46 93 -88 44 -43 84 -78 90 -78 5 0 9 -5 9 -10 0 -6
11 -15 25 -22 13 -6 22 -15 19 -19 -2 -4 5 -13 17 -19 11 -7 31 -21 44 -32 13
-11 26 -19 30 -19 3 1 19 -12 36 -30 16 -17 29 -27 29 -23 0 5 5 1 11 -8 5
-10 16 -18 24 -18 8 0 26 -12 42 -27 15 -16 27 -26 28 -24 0 5 55 -28 65 -39
9 -10 65 -41 83 -47 9 -3 17 -9 17 -13 0 -4 10 -10 23 -14 12 -3 35 -17 51
-31 16 -14 37 -25 47 -25 9 0 19 -3 21 -7 6 -15 85 -53 93 -45 5 4 5 1 1 -5
-4 -7 -4 -13 1 -14 26 -2 47 -9 52 -16 9 -13 54 -36 47 -24 -8 13 76 -30 86
-44 4 -5 8 -6 8 -2 0 4 10 2 23 -5 12 -7 25 -13 30 -14 4 -1 8 -2 10 -4 1 -1
10 -3 20 -5 10 -2 30 -11 44 -20 14 -9 23 -13 19 -7 -3 5 11 1 31 -9 21 -11
45 -19 55 -19 10 0 18 -4 18 -10 0 -5 11 -10 23 -10 13 0 27 -3 31 -7 3 -4 17
-9 29 -11 30 -5 38 -7 71 -21 16 -6 36 -13 45 -15 9 -1 35 -8 59 -15 23 -6 47
-9 52 -6 6 3 10 1 10 -5 0 -7 7 -10 15 -7 8 4 17 1 21 -4 3 -6 17 -9 30 -6 13
2 21 0 18 -4 -3 -5 -2 -9 3 -10 4 -1 22 -3 38 -5 17 -2 39 -5 50 -7 11 -1 25
-6 31 -9 6 -4 38 -8 70 -10 32 -1 62 -7 67 -13 4 -6 10 -5 17 5 5 8 10 10 10
4 0 -7 12 -12 28 -12 15 0 43 -3 62 -6 19 -3 68 -8 108 -10 40 -3 77 -8 82
-11 6 -3 10 -1 10 5 0 6 5 8 10 5 15 -9 203 -10 217 -2 6 4 14 3 18 -3 4 -6
10 -8 15 -5 5 3 51 7 102 9 51 2 100 7 108 10 14 5 93 15 170 21 19 2 35 4 35
5 0 1 11 4 25 6 14 2 41 6 60 10 19 3 43 7 53 7 9 1 17 5 17 10 0 4 4 6 9 3 5
-4 20 -2 34 3 23 9 78 21 105 23 6 1 12 4 12 7 0 3 10 7 23 8 12 1 31 4 42 6
19 4 28 7 70 23 11 4 26 9 33 11 23 6 37 10 67 18 17 4 36 12 43 18 6 5 12 7
12 3 0 -4 13 0 29 8 16 9 31 12 35 9 3 -4 6 -2 6 4 0 6 8 10 18 10 24 0 62 14
62 22 0 4 6 8 13 8 6 0 35 11 62 23 28 13 52 24 55 25 3 1 29 13 59 28 29 14
58 24 62 21 5 -3 9 -1 9 4 0 7 128 79 227 126 13 6 23 14 23 19 0 4 7 7 15 7
8 0 15 5 15 11 0 5 5 7 10 4 6 -3 10 -2 10 3 0 5 12 15 28 22 42 22 275 185
296 209 10 11 23 18 27 15 5 -3 9 2 9 10 0 8 9 17 19 21 10 3 34 21 52 40 18
18 37 31 41 29 4 -3 8 1 8 8 0 7 19 29 41 48 23 19 57 49 76 67 19 18 37 34
41 34 4 1 54 3 112 5 97 2 134 6 200 20 14 3 36 7 48 9 13 2 32 11 42 20 10 9
23 14 29 10 6 -3 31 6 56 20 25 15 45 23 45 18 0 -4 4 -3 8 3 10 14 125 79
135 76 5 -1 6 2 2 8 -3 5 -1 10 5 10 6 0 8 5 4 12 -4 6 -3 8 2 5 6 -3 25 10
43 29 19 19 38 34 43 34 5 0 6 5 3 10 -3 6 -1 10 6 10 7 0 10 3 7 6 -3 3 9 20
27 39 19 18 32 35 29 37 -2 3 6 16 19 30 13 14 23 32 21 41 -1 9 4 18 12 21
15 6 49 80 48 106 0 8 6 18 12 23 7 4 11 15 10 25 -2 9 1 20 6 23 5 3 10 22
12 42 2 21 8 43 13 50 12 16 10 296 -2 305 -6 4 -11 25 -12 47 0 22 -6 41 -12
43 -6 2 -9 8 -5 13 3 5 -2 12 -11 15 -13 6 -14 8 -3 15 8 5 9 9 2 9 -7 0 -10
13 -9 30 1 17 -1 30 -6 30 -5 0 -9 3 -8 8 3 20 -15 52 -33 58 -16 5 -18 8 -7
15 8 5 9 9 3 9 -6 0 -11 7 -11 15 0 8 5 15 11 15 6 0 5 4 -2 9 -11 7 -11 9 1
14 9 3 14 14 13 24 -2 10 1 21 7 24 5 4 10 21 11 38 0 17 5 31 10 31 4 0 6 9
3 20 -3 11 -1 22 3 25 5 3 7 14 5 25 -2 11 2 20 8 20 7 0 6 4 -3 10 -13 9 -13
10 0 10 12 0 12 2 2 9 -11 7 -11 9 1 14 9 3 14 14 13 24 -2 10 2 21 8 25 7 5
6 8 -4 8 -12 0 -12 2 -2 9 8 5 15 26 15 47 1 22 7 42 12 46 6 5 5 8 -3 8 -8 0
-10 5 -5 13 13 21 15 38 16 162 1 69 6 123 12 127 6 5 4 8 -5 8 -13 0 -13 1 0
10 13 9 13 10 0 10 -13 0 -13 1 0 10 13 9 13 10 0 10 -13 0 -13 2 -1 9 20 13
23 281 3 289 -11 4 -11 6 0 13 10 7 10 9 -2 9 -13 0 -13 1 0 10 13 9 13 10 0
10 -13 0 -13 1 0 10 8 5 10 10 5 10 -7 0 -10 34 -9 88 0 50 -5 101 -12 120
-10 24 -10 32 -1 32 8 0 8 3 2 8 -6 4 -11 21 -12 37 -3 54 -7 75 -15 75 -4 0
-5 9 -3 20 2 11 -3 24 -13 30 -14 8 -14 9 -2 10 13 0 13 1 0 10 -13 9 -13 10
0 10 9 0 11 3 5 8 -6 4 -11 21 -12 37 -3 57 -7 75 -16 75 -5 0 -7 9 -4 21 3
12 0 22 -8 25 -7 3 -12 14 -10 25 2 12 -3 23 -11 26 -13 5 -13 7 -2 14 8 5 9
9 2 9 -7 0 -10 13 -9 30 1 17 -1 33 -6 36 -5 3 -7 10 -4 15 4 5 1 9 -5 9 -6 0
-9 4 -5 9 3 6 0 13 -7 18 -12 7 -19 33 -19 76 0 9 -4 17 -10 17 -5 0 -9 9 -9
19 0 11 -5 23 -10 26 -6 4 -8 11 -5 16 4 5 0 12 -9 15 -8 3 -13 14 -11 25 2
10 -1 19 -7 19 -5 0 -8 7 -4 15 3 8 1 15 -4 15 -6 0 -10 7 -10 15 0 8 -5 15
-11 15 -5 0 -7 5 -4 10 3 6 -1 13 -10 16 -13 6 -14 8 -3 15 10 7 11 9 0 9 -7
0 -11 3 -8 8 6 11 -21 72 -33 72 -5 0 -8 9 -6 20 2 10 -6 31 -18 47 -13 16
-16 24 -7 19 8 -4 6 0 -5 9 -11 9 -19 21 -18 26 2 5 -2 9 -8 9 -5 0 -7 4 -4
10 3 5 -5 21 -18 34 -13 13 -23 30 -21 39 1 9 -4 18 -12 21 -8 3 -14 12 -14
21 0 8 -5 15 -11 15 -5 0 -7 5 -4 10 3 6 0 13 -8 16 -9 3 -18 16 -21 28 -3 12
-16 34 -30 49 -13 14 -21 28 -19 31 3 3 -2 8 -11 12 -9 3 -16 12 -16 20 0 8
-5 14 -11 14 -5 0 -8 4 -5 9 3 5 -10 26 -29 47 -19 21 -35 44 -35 51 0 7 -5
13 -11 13 -5 0 -8 4 -5 8 3 5 -6 15 -19 22 -13 7 -22 16 -20 20 3 4 -15 28
-39 54 -24 25 -41 46 -38 46 4 0 -1 5 -10 11 -10 5 -18 14 -18 20 0 5 -15 25
-32 43 -64 66 -93 100 -78 92 8 -4 6 0 -5 8 -43 35 -83 74 -79 78 2 3 -7 11
-21 18 -14 7 -25 19 -25 27 0 7 -4 13 -10 13 -5 0 -29 18 -52 40 -24 23 -68
60 -98 83 -30 23 -67 54 -81 69 -14 16 -31 28 -37 28 -7 0 -12 5 -12 10 0 6
-6 10 -13 10 -7 0 -19 9 -27 20 -8 11 -20 20 -27 20 -7 0 -13 3 -13 8 0 4 -18
18 -40 32 -22 13 -40 28 -40 32 0 4 -5 8 -11 8 -6 0 -32 15 -58 34 -41 29
-103 67 -208 127 -17 10 -34 15 -37 12 -3 -4 -6 -1 -6 5 0 7 -7 12 -15 12 -9
0 -18 7 -22 16 -3 8 -12 13 -20 10 -8 -3 -11 -1 -8 4 3 6 -3 10 -14 10 -12 0
-21 4 -21 10 0 5 -3 10 -7 9 -16 -2 -53 14 -53 23 0 5 -4 6 -10 3 -5 -3 -10
-1 -10 4 0 6 -3 10 -7 9 -20 -4 -62 15 -56 26 3 6 3 8 -2 4 -4 -4 -17 -2 -29
4 -11 7 -24 13 -28 14 -5 1 -11 3 -15 4 -5 2 -12 4 -18 5 -33 8 -55 18 -55 25
0 4 -16 11 -35 14 -19 4 -35 11 -35 15 0 5 -11 7 -25 6 -14 -2 -25 0 -25 5 0
8 -48 25 -62 22 -5 -1 -8 3 -8 9 0 6 -7 9 -15 5 -8 -3 -15 -1 -15 5 0 6 -7 9
-15 5 -8 -3 -15 -1 -15 5 0 6 -4 7 -10 4 -5 -3 -16 -3 -22 2 -7 4 -22 9 -32
10 -11 2 -24 8 -30 13 -7 5 -25 11 -41 14 -17 2 -30 5 -30 6 0 3 -38 9 -67 12
-16 1 -28 5 -28 8 0 3 -10 7 -22 8 -56 6 -63 7 -69 14 -3 5 -18 9 -35 10 -16
1 -35 6 -41 11 -9 6 -13 5 -13 -4 0 -9 -3 -10 -8 -4 -7 10 -44 18 -89 19 -13
0 -23 3 -23 6 0 3 -15 5 -32 5 -18 -1 -36 4 -40 9 -5 7 -8 6 -8 -2 0 -7 -4
-10 -10 -7 -5 3 -26 8 -46 9 -19 2 -38 6 -41 10 -3 3 -14 1 -24 -5 -11 -5 -19
-6 -19 -1 0 4 -37 9 -82 11 -159 5 -220 6 -221 4z"/>
</g>
</svg>
